<svg width="18" height="18" viewBox="0 0 18 18" fill="none" xmlns="http://www.w3.org/2000/svg">
<path d="M12.7202 4.62744C14.2202 5.66994 15.2552 7.32744 15.4652 9.23994" stroke="#212121" stroke-width="1.5" stroke-linecap="round" stroke-linejoin="round"/>
<path d="M2.61768 9.27766C2.81268 7.37266 3.83268 5.71516 5.31768 4.66516" stroke="#212121" stroke-width="1.5" stroke-linecap="round" stroke-linejoin="round"/>
<path d="M6.14258 15.705C7.01258 16.1475 8.00258 16.395 9.04508 16.395C10.0501 16.395 10.9951 16.17 11.8426 15.7575" stroke="#212121" stroke-width="1.5" stroke-linecap="round" stroke-linejoin="round"/>
<path d="M9.04496 5.7751C10.1965 5.7751 11.13 4.84162 11.13 3.6901C11.13 2.53859 10.1965 1.6051 9.04496 1.6051C7.89345 1.6051 6.95996 2.53859 6.95996 3.6901C6.95996 4.84162 7.89345 5.7751 9.04496 5.7751Z" stroke="#212121" stroke-width="1.5" stroke-linecap="round" stroke-linejoin="round"/>
<path d="M3.6226 14.9399C4.77411 14.9399 5.7076 14.0064 5.7076 12.8549C5.7076 11.7034 4.77411 10.7699 3.6226 10.7699C2.47108 10.7699 1.5376 11.7034 1.5376 12.8549C1.5376 14.0064 2.47108 14.9399 3.6226 14.9399Z" stroke="#212121" stroke-width="1.5" stroke-linecap="round" stroke-linejoin="round"/>
<path d="M14.3775 14.9399C15.529 14.9399 16.4625 14.0064 16.4625 12.8549C16.4625 11.7034 15.529 10.7699 14.3775 10.7699C13.226 10.7699 12.2925 11.7034 12.2925 12.8549C12.2925 14.0064 13.226 14.9399 14.3775 14.9399Z" stroke="#212121" stroke-width="1.5" stroke-linecap="round" stroke-linejoin="round"/>
</svg>
