<svg width="18" height="18" viewBox="0 0 18 18" fill="none" xmlns="http://www.w3.org/2000/svg">
<g clip-path="url(#clip0_99_2646)">
<path d="M17.3616 7.09341L17.3615 7.09348L17.364 7.09472C17.4082 7.1168 17.4436 7.12899 17.4804 7.13512C17.5152 7.14091 17.5495 7.14091 17.5884 7.14091H17.5909C17.6624 7.14091 17.7421 7.11741 17.814 7.07868C17.8862 7.03983 17.9544 6.9836 18.0007 6.9141L18.0007 6.91413L18.002 6.91209C18.1411 6.68021 18.0456 6.40543 17.8212 6.27079C16.687 5.58206 16.0045 4.53294 16.0045 3.40909C16.0045 3.275 15.9596 3.15937 15.8774 3.07714C15.7952 2.99491 15.6795 2.95 15.5455 2.95H13.9091C13.775 2.95 13.6594 2.99491 13.5771 3.07714C13.4949 3.15937 13.45 3.275 13.45 3.40909C13.45 5.41799 11.4777 7.04091 9 7.04091C6.52227 7.04091 4.55 5.41799 4.55 3.40909C4.55 3.275 4.50509 3.15937 4.42286 3.07714C4.34063 2.99491 4.225 2.95 4.09091 2.95H2.45455C2.32046 2.95 2.20483 2.99491 2.1226 3.07714C2.04037 3.15937 1.99545 3.275 1.99545 3.40909V3.45C1.99545 4.57367 1.35427 5.62142 0.182375 6.30958C0.065501 6.35768 -0.00430925 6.45263 -0.0330128 6.56171C-0.0616986 6.67071 -0.0497978 6.79423 -0.00551474 6.90493L-0.00653237 6.90534L-0.000693425 6.9141C0.0456379 6.9836 0.113807 7.03983 0.185954 7.07868C0.257872 7.11741 0.337584 7.14091 0.409091 7.14091H0.411577C0.450474 7.14091 0.48479 7.14091 0.519584 7.13512C0.556356 7.12899 0.591837 7.1168 0.635997 7.09472L0.636127 7.09498L0.640674 7.09206C1.17126 6.75097 1.63421 6.37357 1.99545 5.92728V9.90455H0.409091C0.180236 9.90455 -0.05 10.0874 -0.05 10.3636C-0.05 10.4977 -0.00508523 10.6134 0.0771446 10.6956C0.159245 10.7777 0.274637 10.8226 0.408457 10.8227L1.99545 10.8624V13.5864H1.63636C1.50227 13.5864 1.38665 13.6313 1.30442 13.7135C1.22219 13.7957 1.17727 13.9114 1.17727 14.0455C1.17727 14.1795 1.22219 14.2952 1.30442 14.3774C1.38665 14.4596 1.50227 14.5045 1.63636 14.5045H4.90909C5.04318 14.5045 5.15881 14.4596 5.24104 14.3774C5.32327 14.2952 5.36818 14.1795 5.36818 14.0455C5.36818 13.9114 5.32327 13.7957 5.24104 13.7135C5.15881 13.6313 5.04318 13.5864 4.90909 13.5864H4.55V12C4.55 11.8659 4.50509 11.7503 4.42286 11.6681C4.34063 11.5858 4.225 11.5409 4.09091 11.5409C3.95682 11.5409 3.84119 11.5858 3.75896 11.6681C3.67673 11.7503 3.63182 11.8659 3.63182 12V13.5864H2.91364V3.86818H3.67806C3.95163 6.16908 6.25783 7.95909 9 7.95909C11.7422 7.95909 14.0484 6.16908 14.3219 3.86818H15.0864V13.5864H14.3682V12C14.3682 11.8659 14.3233 11.7503 14.241 11.6681C14.1588 11.5858 14.0432 11.5409 13.9091 11.5409C13.775 11.5409 13.6594 11.5858 13.5771 11.6681C13.4949 11.7503 13.45 11.8659 13.45 12V13.5864H13.0909C12.9568 13.5864 12.8412 13.6313 12.759 13.7135C12.6767 13.7957 12.6318 13.9114 12.6318 14.0455C12.6318 14.1795 12.6767 14.2952 12.759 14.3774C12.8412 14.4596 12.9568 14.5045 13.0909 14.5045H16.3636C16.4977 14.5045 16.6134 14.4596 16.6956 14.3774C16.7778 14.2952 16.8227 14.1795 16.8227 14.0455C16.8227 13.9114 16.7778 13.7957 16.6956 13.7135C16.6134 13.6313 16.4977 13.5864 16.3636 13.5864H16.0045V10.8636H17.5909C17.725 10.8636 17.8406 10.8187 17.9229 10.7365C18.0051 10.6543 18.05 10.5386 18.05 10.4045C18.05 10.2705 18.0051 10.1548 17.9229 10.0726C17.8406 9.99037 17.725 9.94546 17.5909 9.94546H16.0045V5.92798C16.3651 6.37857 16.8281 6.78856 17.3616 7.09341Z" fill="#212121" stroke="#212121" stroke-width="0.1"/>
<path d="M14.368 10.4045V6.6818C14.368 6.54771 14.3231 6.43208 14.2409 6.34985C14.1586 6.26762 14.043 6.22271 13.9089 6.22271C13.7748 6.22271 13.6592 6.26762 13.577 6.34985C13.4947 6.43208 13.4498 6.54771 13.4498 6.6818V9.94543H11.9135V8.31816C11.9135 8.18407 11.8686 8.06844 11.7863 7.98621C11.7041 7.90398 11.5885 7.85907 11.4544 7.85907C11.3203 7.85907 11.2047 7.90398 11.1224 7.98621C11.0402 8.06844 10.9953 8.18407 10.9953 8.31816V9.94543H9.45892V8.72725C9.45892 8.59316 9.414 8.47753 9.33177 8.3953C9.24955 8.31307 9.13392 8.26816 8.99983 8.26816C8.86574 8.26816 8.75011 8.31307 8.66788 8.3953C8.58565 8.47753 8.54074 8.59316 8.54074 8.72725V9.94543H7.00437V8.31816C7.00437 8.18407 6.95946 8.06844 6.87723 7.98621C6.795 7.90398 6.67937 7.85907 6.54528 7.85907C6.41119 7.85907 6.29556 7.90398 6.21333 7.98621C6.1311 8.06844 6.08619 8.18407 6.08619 8.31816V9.94543H4.54982V6.6818C4.54982 6.54771 4.50491 6.43208 4.42268 6.34985C4.34045 6.26762 4.22482 6.22271 4.09073 6.22271C3.95664 6.22271 3.84102 6.26762 3.75879 6.34985C3.67656 6.43208 3.63164 6.54771 3.63164 6.6818V10.4045C3.63164 10.5386 3.67656 10.6542 3.75879 10.7365C3.84102 10.8187 3.95664 10.8636 4.09073 10.8636H13.9089C14.1852 10.8636 14.368 10.6334 14.368 10.4045Z" fill="#212121" stroke="#212121" stroke-width="0.1"/>
</g>
<defs>
<clipPath id="clip0_99_2646">
<rect width="18" height="18" fill="white"/>
</clipPath>
</defs>
</svg>
