<svg width="21" height="21" viewBox="0 0 21 21" fill="none" xmlns="http://www.w3.org/2000/svg">
<path d="M17.2111 4.0963C17.2057 4.08577 17.1968 4.07752 17.186 4.07302C15.9351 3.49133 14.615 3.07654 13.2588 2.83903C13.2465 2.83671 13.2338 2.83838 13.2224 2.84382C13.2111 2.84925 13.2017 2.85816 13.1957 2.86929C13.016 3.19995 12.8528 3.5396 12.7068 3.88692C11.2449 3.66201 9.75786 3.66201 8.29595 3.88692C8.14901 3.53871 7.98321 3.19899 7.79933 2.86929C7.79302 2.85841 7.78363 2.8497 7.77237 2.8443C7.76111 2.8389 7.7485 2.83707 7.7362 2.83903C6.37986 3.07604 5.05969 3.49087 3.80894 4.07306C3.79823 4.07766 3.7892 4.08551 3.78308 4.09554C1.28182 7.88132 0.596626 11.574 0.932757 15.221C0.933703 15.2299 0.936412 15.2386 0.940724 15.2465C0.945037 15.2543 0.950864 15.2612 0.957859 15.2667C2.41432 16.3597 4.04339 17.194 5.77555 17.734C5.78775 17.7377 5.80078 17.7375 5.81288 17.7335C5.82498 17.7295 5.83558 17.7218 5.84325 17.7115C6.21528 17.1984 6.54492 16.6552 6.82884 16.0872C6.83274 16.0794 6.83496 16.0709 6.83537 16.0621C6.83578 16.0534 6.83435 16.0447 6.8312 16.0365C6.82804 16.0284 6.82321 16.021 6.81704 16.0149C6.81087 16.0088 6.8035 16.0041 6.7954 16.0011C6.27557 15.7995 5.77231 15.5565 5.29036 15.2744C5.2816 15.2692 5.27425 15.2618 5.26895 15.2531C5.26364 15.2443 5.26056 15.2343 5.25996 15.224C5.25936 15.2138 5.26126 15.2035 5.26551 15.1941C5.26975 15.1848 5.2762 15.1766 5.28429 15.1704C5.38541 15.0936 5.48661 15.0138 5.58317 14.9331C5.59175 14.9259 5.60214 14.9213 5.61315 14.9198C5.62417 14.9183 5.63538 14.92 5.64552 14.9246C8.80303 16.3851 12.2215 16.3851 15.3416 14.9246C15.3518 14.9197 15.3631 14.9178 15.3743 14.9192C15.3855 14.9205 15.396 14.9251 15.4047 14.9323C15.5013 15.013 15.6025 15.0936 15.7044 15.1704C15.7125 15.1766 15.719 15.1847 15.7233 15.194C15.7276 15.2033 15.7296 15.2136 15.7291 15.2238C15.7286 15.2341 15.7256 15.2441 15.7203 15.2529C15.7151 15.2617 15.7078 15.2691 15.6991 15.2744C15.2182 15.5589 14.7145 15.8018 14.1933 16.0004C14.1852 16.0035 14.1779 16.0083 14.1717 16.0145C14.1656 16.0207 14.1608 16.0281 14.1577 16.0363C14.1546 16.0445 14.1533 16.0533 14.1538 16.0621C14.1542 16.0708 14.1565 16.0794 14.1605 16.0872C14.4492 16.652 14.7783 17.1946 15.1453 17.7106C15.1528 17.7212 15.1633 17.7291 15.1755 17.7333C15.1876 17.7375 15.2008 17.7377 15.213 17.7339C16.9483 17.1957 18.5802 16.3614 20.0385 15.2667C20.0456 15.2615 20.0515 15.2548 20.0558 15.247C20.0602 15.2392 20.0628 15.2306 20.0636 15.2218C20.466 11.0055 19.3899 7.34304 17.2111 4.0963ZM7.30038 13.0004C6.34974 13.0004 5.56644 12.1162 5.56644 11.0303C5.56644 9.94446 6.33455 9.06021 7.30038 9.06021C8.27377 9.06021 9.04949 9.95214 9.0343 11.0303C9.0343 12.1162 8.26615 13.0004 7.30038 13.0004ZM13.7113 13.0004C12.7607 13.0004 11.9774 12.1162 11.9774 11.0303C11.9774 9.94446 12.7455 9.06021 13.7113 9.06021C14.6847 9.06021 15.4604 9.95214 15.4452 11.0303C15.4452 12.1162 14.6847 13.0004 13.7113 13.0004Z" fill="#0586CE"/>
</svg>
