<svg width="21" height="21" viewBox="0 0 21 21" fill="none" xmlns="http://www.w3.org/2000/svg">
<path d="M8.97021 18.2724C8.69951 18.3011 8.46982 18.3298 8.24013 18.3544C7.04658 18.4734 6.00478 18.1494 5.21728 17.2183C4.97119 16.9271 4.83174 16.5498 4.62256 16.2257C4.29853 15.7171 3.96631 15.2126 3.60947 14.7246C3.48643 14.5564 3.27314 14.458 3.10908 14.3144C3.05576 14.2693 3.03936 14.1832 3.00244 14.1134C3.07627 14.0847 3.146 14.0355 3.21982 14.0273C4.16318 13.9412 4.82764 14.3759 5.29111 15.1593C5.86943 16.1355 6.70615 16.6687 7.84228 16.6687C8.17041 16.6687 8.49853 16.558 8.82256 16.4841C8.88408 16.4677 8.95791 16.3734 8.96611 16.3037C9.02353 15.8771 9.07685 15.4505 9.27373 15.0609C9.34755 14.9173 9.43369 14.782 9.51982 14.6343C9.18759 14.5687 8.86767 14.5195 8.55185 14.4416C7.0958 14.0724 5.89404 13.3423 5.19678 11.956C4.92607 11.4146 4.77432 10.8322 4.75381 10.2251C4.721 9.28999 4.7333 8.35073 4.92197 7.42788C5.05732 6.77983 5.30342 6.1769 5.7956 5.70933C5.90224 5.60679 5.92275 5.51655 5.86533 5.36069C5.59053 4.5937 5.56182 3.8144 5.7956 3.03101C5.84482 2.86284 5.88994 2.69468 5.93916 2.51831C7.06299 2.73159 7.73154 3.49038 8.35908 4.3312C9.00713 3.85132 9.77412 3.8103 10.5206 3.76108C11.4065 3.70366 12.2966 3.71597 13.1784 3.85952C13.6378 3.93335 13.9208 4.02769 14.3679 4.29429C14.7534 3.89644 15.1143 3.49448 15.5122 3.12944C15.828 2.83823 16.2218 2.65366 16.6483 2.55522C16.7673 2.52651 16.8288 2.53882 16.878 2.67007C17.2102 3.57651 17.2595 4.47886 16.8944 5.3853C16.8452 5.50835 16.8493 5.59448 16.9518 5.69292C17.5425 6.25483 17.8132 6.98081 17.9034 7.76421C17.9854 8.49019 18.0306 9.22027 18.0306 9.95034C18.0306 10.988 17.7229 11.9396 17.0708 12.7558C16.6114 13.3341 16.0167 13.7484 15.344 14.0601C14.6919 14.3595 14.011 14.5318 13.3056 14.622C13.2892 14.6261 13.2727 14.6384 13.244 14.6507C13.728 15.3439 13.806 16.1232 13.7977 16.9312C13.7854 18.1084 13.7895 19.2814 13.7977 20.4585C13.7977 20.6431 13.7444 20.6882 13.564 20.6882C12.1079 20.68 10.6519 20.68 9.1958 20.6882C9.01533 20.6882 8.95791 20.6308 8.95791 20.4544C8.96611 19.8187 8.96201 19.183 8.96201 18.5472C8.97021 18.4529 8.97021 18.3709 8.97021 18.2724Z" fill="#0586CE"/>
</svg>
