<svg width="21" height="21" viewBox="0 0 21 21" fill="none" xmlns="http://www.w3.org/2000/svg">
<path fill-rule="evenodd" clip-rule="evenodd" d="M3.25308 6.26416C3.27683 6.01643 3.18738 5.77206 3.01321 5.60578L1.23988 3.33842V3H6.74829L11.0059 12.905L14.7489 3H20V3.33842L18.4832 4.88107C18.3525 4.98688 18.2876 5.16071 18.3145 5.33286V16.668C18.2876 16.8393 18.3525 17.0131 18.4832 17.1189L19.9644 18.6616V19H12.5132V18.6616L14.0483 17.0811C14.1987 16.9216 14.1987 16.8746 14.1987 16.6302V7.46838L9.93238 18.9631H9.35604L4.38833 7.46838V15.1724C4.34717 15.4957 4.4485 15.8223 4.66304 16.0558L6.65883 18.6238V18.9631H1V18.6238L2.99579 16.0558C3.20954 15.8215 3.30454 15.4932 3.25308 15.1724V6.26416V6.26416Z" fill="#0586CE"/>
</svg>
