<svg width="152" height="98" viewBox="0 0 152 98" fill="none" xmlns="http://www.w3.org/2000/svg">
<path fill-rule="evenodd" clip-rule="evenodd" d="M52.5433 42.8965C57.1534 47.2162 63.3133 49.233 69.7762 48.7785C64.1431 46.7945 59.3552 42.914 55.3137 37.941L55.2434 37.847C53.3054 34.9917 52.0305 31.7426 51.5115 28.3357C50.193 27.6388 48.9717 26.7735 47.8783 25.7618C47.0666 25.0186 46.3026 24.2254 45.5908 23.3867C44.8247 30.737 47.2329 37.93 52.5389 42.8965" fill="#0586CE"/>
<path fill-rule="evenodd" clip-rule="evenodd" d="M57.228 36.4857C59.8623 39.7238 62.6627 42.2686 65.6293 44.12C64.0311 41.3072 63.2262 37.5279 63.2145 32.7821L65.6534 34.3531C65.8305 38.3648 66.6706 41.4718 68.1736 43.6743C69.4255 45.5151 71.3248 46.8225 73.4971 47.3385C73.8967 47.4216 74.2984 47.4944 74.7023 47.557C74.9065 39.75 70.4435 36.088 65.6183 32.9329L62.2749 30.7806C58.5034 28.3225 55.1117 25.7049 53.9065 21.3721C53.7202 22.654 53.6387 23.9488 53.6628 25.2439C53.7327 29.2523 54.9696 33.1544 57.2236 36.4769" fill="#259AE8"/>
<path fill-rule="evenodd" clip-rule="evenodd" d="M56.2396 14.3557C54.7293 22.2217 58.8586 25.6958 63.7277 28.8706L67.7055 31.4402C71.0928 33.7038 74.2606 36.2908 75.9203 40.3265L75.9532 40.25L75.9861 40.3265C77.6655 36.245 80.8157 33.7169 84.2294 31.4205C85.6739 30.4839 86.991 29.6339 88.1809 28.8706C93.05 25.6958 97.1815 22.2282 95.6689 14.3557C92.9644 17.5633 89.0831 18.9311 85.7331 21.6099C86.6523 23.6033 87.3871 25.676 87.9284 27.8021L85.7814 29.1852C84.3347 22.6303 80.5281 16.4096 75.951 10.875C71.3738 16.4096 67.5672 22.639 66.1206 29.1852L63.978 27.8021C64.5195 25.6775 65.2543 23.6063 66.1732 21.6142C62.8364 18.9354 58.942 17.5676 56.2374 14.3601" fill="#63B0FC"/>
<path fill-rule="evenodd" clip-rule="evenodd" d="M86.289 32.9341C81.4594 36.0893 77.0008 39.7513 77.205 47.5583C77.6089 47.4942 78.0107 47.4214 78.4102 47.3398C80.6933 46.7469 82.4678 45.5255 83.7337 43.6755C85.2368 41.4731 86.0768 38.366 86.2539 34.3544L88.695 32.7834C88.6833 37.5292 87.8784 41.3085 86.2802 44.1213C89.2395 42.2699 92.0406 39.7251 94.6838 36.4869C96.9367 33.163 98.1742 29.2607 98.2467 25.2517C98.269 23.9566 98.1868 22.6619 98.0008 21.3799C96.7956 25.7127 93.4039 28.3303 89.6324 30.7885L86.289 32.9407V32.9341Z" fill="#259AE8"/>
<path fill-rule="evenodd" clip-rule="evenodd" d="M96.5977 37.941C92.5562 42.914 87.7683 46.7945 82.1353 48.7785C88.596 49.2352 94.7537 47.2162 99.3682 42.8965C104.676 37.93 107.082 30.737 106.316 23.3867C105.604 24.2254 104.84 25.0186 104.029 25.7618C102.935 26.7735 101.714 27.6388 100.396 28.3357C99.8765 31.7426 98.6017 34.9917 96.6636 37.847L96.5977 37.941Z" fill="#0586CE"/>
<path d="M3.5318 86.8147C3.38919 86.6788 3.27609 86.5152 3.1995 86.3341C3.12292 86.153 3.08445 85.9581 3.0865 85.7616C3.09762 85.5033 3.16011 85.2497 3.27034 85.0155L3.42762 84.7431L19.9725 60.4729H5.27822C5.08081 60.4761 4.88487 60.4385 4.70277 60.3626C4.52067 60.2866 4.35635 60.174 4.22015 60.0317C4.07749 59.8909 3.96426 59.7234 3.88698 59.5388C3.80971 59.3542 3.76992 59.1562 3.76992 58.9563C3.76992 58.7563 3.80971 58.5583 3.88698 58.3737C3.96426 58.1891 4.07749 58.0216 4.22015 57.8808C4.36323 57.738 4.53373 57.6254 4.72147 57.5496C4.90921 57.4738 5.11035 57.4364 5.31292 57.4396H23.0548C23.4559 57.4429 23.8393 57.6044 24.1207 57.8888C24.4022 58.1731 24.5588 58.5571 24.5561 58.9563C24.5676 59.137 24.5279 59.3173 24.4417 59.4767C24.3487 59.6343 24.2727 59.8013 24.215 59.9748L7.51892 84.245H24.0107C24.2099 84.2404 24.4077 84.2773 24.5917 84.3533C24.7757 84.4292 24.9416 84.5426 25.079 84.6861C25.2198 84.8275 25.3306 84.9955 25.405 85.1802C25.4794 85.3649 25.5158 85.5626 25.512 85.7616C25.5145 85.9571 25.4774 86.151 25.403 86.3319C25.3286 86.5129 25.2184 86.677 25.079 86.8147C24.9416 86.9582 24.7757 87.0716 24.5917 87.1476C24.4077 87.2236 24.2099 87.2604 24.0107 87.2559H4.58373C4.38735 87.2582 4.19258 87.2202 4.0116 87.1443C3.83062 87.0684 3.6673 86.9562 3.5318 86.8147V86.8147Z" fill="#0586CE" stroke="#0586CE" stroke-width="2.67" stroke-miterlimit="10"/>
<path d="M34.3934 86.6684C33.0625 86.1134 31.8532 85.3055 30.8332 84.2897C29.2665 82.7461 28.1996 80.7712 27.7697 78.6192C27.3398 76.4672 27.5666 74.2363 28.4208 72.2136C29.5543 69.5316 31.6983 67.3983 34.3934 66.2711C35.7469 65.7035 37.2008 65.4111 38.6695 65.4111C40.1383 65.4111 41.5921 65.7035 42.9457 66.2711C45.6414 67.384 47.7899 69.5065 48.9284 72.1811C49.5096 73.5179 49.8152 74.9573 49.8271 76.4138C49.8309 76.6071 49.795 76.7991 49.7217 76.9781C49.6484 77.1571 49.5392 77.3194 49.4008 77.4551C49.2625 77.5907 49.0978 77.6969 48.9168 77.7671C48.7358 77.8373 48.5424 77.87 48.3483 77.8634H30.923C31.0404 78.7894 31.3299 79.6857 31.7768 80.5063C32.2181 81.3217 32.7995 82.0538 33.4946 82.6694C34.2044 83.2866 35.0164 83.7764 35.8947 84.1169C36.7818 84.465 37.7272 84.6423 38.6807 84.6394C39.4316 84.6584 40.1815 84.5743 40.9092 84.3894C41.5465 84.2011 42.1578 83.9348 42.7292 83.5965C43.0093 83.4224 43.3324 83.3288 43.6626 83.3261C43.8622 83.3247 44.0597 83.3676 44.2406 83.4516C44.4215 83.5357 44.5813 83.6588 44.7084 83.812C44.9857 84.1111 45.1402 84.5028 45.1414 84.9098C45.1496 85.1612 45.0852 85.4097 44.956 85.6258C44.8268 85.842 44.6381 86.0168 44.4122 86.1296C43.6361 86.5857 42.8021 86.9364 41.9325 87.1725C40.8674 87.4239 39.7754 87.5454 38.6807 87.5344C37.2074 87.5382 35.7487 87.2436 34.3934 86.6684V86.6684ZM46.7326 75.3241C46.6198 74.3558 46.3305 73.4161 45.8788 72.5511C45.4372 71.7023 44.8392 70.9437 44.116 70.3148C43.3844 69.6792 42.5456 69.1775 41.6384 68.8327C40.7089 68.4776 39.7213 68.297 38.7257 68.3001C36.7371 68.2903 34.8183 69.0288 33.3537 70.3676C32.6529 71.0033 32.0748 71.7612 31.6481 72.604C31.2121 73.4523 30.9352 74.3728 30.8311 75.3201L46.7326 75.3241Z" fill="#0586CE" stroke="#0586CE" stroke-width="2.67" stroke-miterlimit="10"/>
<path d="M52.9621 86.8271C52.8121 86.6933 52.6928 86.5289 52.6125 86.345C52.5321 86.1612 52.4925 85.9623 52.4964 85.7618V76.0277C52.4904 74.6252 52.7524 73.2343 53.2685 71.9292C53.7672 70.6595 54.5087 69.4982 55.452 68.5096C56.9032 67.0288 58.7697 66.0184 60.8073 65.6107C62.8449 65.203 64.9586 65.4169 66.8721 66.2245C68.111 66.7546 69.2321 67.5237 70.1708 68.4873C71.0987 69.4764 71.8281 70.6329 72.3196 71.8946C72.8315 73.2048 73.09 74.5996 73.0815 76.0054V85.7638C73.0899 85.9623 73.0568 86.1603 72.9843 86.3454C72.9118 86.5304 72.8015 86.6985 72.6604 86.839C72.5193 86.9794 72.3504 87.0892 72.1645 87.1613C71.9786 87.2335 71.7796 87.2664 71.5802 87.2581C71.3813 87.2628 71.1833 87.2281 70.9979 87.1563C70.8124 87.0844 70.6431 86.9767 70.4997 86.8393C70.3533 86.7017 70.238 86.5346 70.1616 86.3491C70.0852 86.1637 70.0493 85.9642 70.0564 85.7638V76.1172C70.0606 75.1043 69.8793 74.0992 69.5213 73.151C69.1852 72.251 68.6799 71.423 68.0323 70.7114C67.3751 70.009 66.5815 69.4467 65.6996 69.0586C64.7936 68.6619 63.8134 68.461 62.8237 68.469C61.8503 68.4599 60.8855 68.6501 59.9891 69.0278C59.0927 69.4056 58.284 69.9627 57.613 70.6646C56.9488 71.3639 56.4308 72.1877 56.0893 73.088C55.7238 74.0344 55.5388 75.0403 55.5439 76.0542V85.7659C55.5518 85.9632 55.5197 86.1602 55.4495 86.345C55.3793 86.5297 55.2725 86.6985 55.1354 86.8413C54.9965 86.9814 54.8297 87.0911 54.6458 87.1632C54.4618 87.2353 54.2647 87.2684 54.0671 87.2601C53.6559 87.2657 53.259 87.1102 52.9621 86.8271Z" fill="#0586CE" stroke="#0586CE" stroke-width="2.67" stroke-miterlimit="10"/>
<path d="M83.192 86.6783C81.8606 86.1199 80.6513 85.3085 79.6318 84.2895C78.6025 83.2819 77.7834 82.0818 77.2215 80.7582C76.6452 79.4132 76.3511 77.9652 76.3575 76.5031C76.3522 75.0432 76.6384 73.5968 77.1994 72.2479C77.7605 70.899 78.5852 69.6745 79.6257 68.6455C80.6475 67.6265 81.8588 66.8152 83.192 66.2567C84.5414 65.6898 85.9923 65.4014 87.4569 65.4089C89.4287 65.4089 91.0743 65.8501 92.3938 66.7324C93.7133 67.6147 94.7598 68.8793 95.5333 70.526V59.0456C95.5259 58.8405 95.5593 58.636 95.6315 58.4437C95.7037 58.2515 95.8133 58.0753 95.954 57.9254C96.0921 57.7799 96.2597 57.6654 96.4456 57.5893C96.6316 57.5133 96.8316 57.4774 97.0325 57.4842C97.2345 57.4805 97.4349 57.5189 97.621 57.597C97.8071 57.6751 97.9747 57.7911 98.1131 57.9376C98.2583 58.083 98.3726 58.256 98.4491 58.4464C98.5256 58.6368 98.5628 58.8406 98.5583 59.0456V76.6373C98.5323 78.7934 97.8721 80.8946 96.6592 82.6813C95.4464 84.468 93.7341 85.8619 91.7341 86.6905C90.3785 87.2501 88.9244 87.5349 87.4569 87.5281C85.9921 87.5357 84.541 87.2466 83.192 86.6783ZM90.6188 83.8951C91.5921 83.4878 92.474 82.8913 93.2129 82.1406C93.94 81.3995 94.5188 80.5274 94.9185 79.5709C95.3265 78.5993 95.5348 77.5561 95.5312 76.5031C95.5369 75.4459 95.3319 74.398 94.928 73.4202C94.5242 72.4423 93.9295 71.5539 93.1784 70.8063C92.4273 70.0588 91.5347 69.4669 90.5523 69.0649C89.5698 68.6629 88.5171 68.4589 87.4549 68.4645C86.3808 68.458 85.3167 68.6697 84.3277 69.0866C83.3635 69.4939 82.487 70.082 81.7459 70.8188C81.0024 71.5584 80.4112 72.4355 80.0056 73.4007C79.5888 74.3822 79.3762 75.4375 79.3805 76.5031C79.3771 77.5574 79.5897 78.6012 80.0056 79.5709C80.4139 80.531 81.0049 81.4036 81.7459 82.1406C82.4816 82.8894 83.3591 83.4858 84.3277 83.8951C85.3167 84.3121 86.3808 84.5237 87.4549 84.5172C88.5382 84.5235 89.6115 84.3119 90.6106 83.8951H90.6188Z" fill="#0586CE" stroke="#0586CE" stroke-width="2.67" stroke-miterlimit="10"/>
<path d="M108.423 86.6788C105.759 85.5405 103.646 83.415 102.53 80.7526C101.968 79.4039 101.682 77.9574 101.688 76.4975C101.673 73.5592 102.827 70.7344 104.897 68.6399C105.903 67.6202 107.101 66.8084 108.423 66.2511C109.774 65.6914 111.224 65.4033 112.687 65.4033C114.151 65.4033 115.601 65.6914 116.952 66.2511C118.275 66.8109 119.474 67.6246 120.48 68.6456C121.487 69.6666 122.281 70.875 122.819 72.2017C123.382 73.5664 123.668 75.0284 123.66 76.5036V85.8087C123.662 86.0143 123.623 86.2182 123.545 86.4084C123.467 86.5987 123.351 86.7716 123.205 86.917C123.059 87.0623 122.885 87.1773 122.694 87.2551C122.503 87.3329 122.298 87.3719 122.091 87.37C121.892 87.3777 121.693 87.3422 121.508 87.266C121.323 87.1899 121.157 87.0749 121.021 86.9289C120.745 86.622 120.598 86.2206 120.613 85.8087L120.59 84.1823C119.574 85.2534 118.346 86.1039 116.983 86.6804C115.621 87.257 114.153 87.5471 112.673 87.5327C111.213 87.5395 109.766 87.249 108.423 86.6788V86.6788ZM115.827 83.8956C116.785 83.4929 117.649 82.8953 118.362 82.1411C119.076 81.3985 119.64 80.5261 120.022 79.5714C120.417 78.5965 120.618 77.5547 120.615 76.5036C120.618 75.4373 120.417 74.3802 120.022 73.389C119.647 72.4305 119.082 71.5567 118.362 70.8193C117.622 70.0657 116.737 69.4688 115.76 69.0642C114.783 68.6596 113.733 68.4558 112.675 68.465C111.608 68.4571 110.551 68.6689 109.57 69.0871C107.643 69.9125 106.122 71.4635 105.34 73.4012C104.934 74.3855 104.726 75.4395 104.727 76.5036C104.723 78.6093 105.547 80.6331 107.023 82.1411C107.751 82.9 108.626 83.5024 109.597 83.9112C110.567 84.3199 111.611 84.5264 112.665 84.5177C113.751 84.527 114.827 84.3153 115.827 83.8956V83.8956Z" fill="#0586CE" stroke="#0586CE" stroke-width="2.67" stroke-miterlimit="10"/>
<path d="M133.644 86.678C132.313 86.12 131.104 85.3085 130.086 84.2892C129.052 83.2806 128.23 82.0783 127.665 80.7517C127.089 79.4068 126.795 77.9588 126.801 76.4966C126.796 75.0366 127.081 73.5901 127.642 72.2411C128.204 70.8921 129.029 69.6677 130.07 68.639C131.094 67.6208 132.308 66.8114 133.644 66.2563C135.004 65.6944 136.462 65.4061 137.935 65.4082C139.407 65.4103 140.865 65.7027 142.223 66.2685C143.555 66.8219 144.764 67.632 145.781 68.6522C146.797 69.6724 147.601 70.8825 148.146 72.2131C148.717 73.5721 149.008 75.0317 149 76.5048C149.006 77.9632 148.716 79.4078 148.146 80.7517C147.594 82.0721 146.787 83.2718 145.771 84.2831C144.754 85.2988 143.549 86.1087 142.223 86.6678C140.859 87.2424 139.392 87.5349 137.911 87.5278C136.446 87.5353 134.994 87.2461 133.644 86.678V86.678ZM141.071 83.8948C142.044 83.4874 142.926 82.891 143.665 82.1403C144.393 81.3996 144.972 80.5274 145.371 79.5705C145.78 78.5992 145.988 77.5559 145.983 76.5027C145.989 75.4383 145.78 74.3835 145.371 73.4003C144.761 71.9322 143.726 70.6784 142.396 69.7991C141.067 68.9198 139.505 68.455 137.909 68.4642C136.835 68.4576 135.771 68.6693 134.782 69.0863C133.818 69.4936 132.941 70.0817 132.2 70.8184C131.456 71.5581 130.865 72.4351 130.46 73.4003C130.043 74.3818 129.83 75.4372 129.835 76.5027C129.831 77.557 130.044 78.6009 130.46 79.5705C130.868 80.5307 131.459 81.4033 132.2 82.1403C132.936 82.8891 133.813 83.4854 134.782 83.8948C135.771 84.3117 136.835 84.5234 137.909 84.5169C138.992 84.5233 140.064 84.3117 141.063 83.8948H141.071Z" fill="#0586CE" stroke="#0586CE" stroke-width="2.67" stroke-miterlimit="10"/>
</svg>
