<svg width="21" height="21" viewBox="0 0 21 21" fill="none" xmlns="http://www.w3.org/2000/svg">
<path d="M19.5715 5.58047C18.9007 5.87866 18.1788 6.0798 17.4213 6.16981C18.1947 5.70679 18.7877 4.97336 19.0674 4.09844C18.344 4.52775 17.5431 4.83927 16.6901 5.00744C16.0074 4.27994 15.0343 3.82507 13.9575 3.82507C11.8902 3.82507 10.2141 5.50121 10.2141 7.56887C10.2141 7.86187 10.2471 8.14746 10.3111 8.42194C7.19964 8.26562 4.44078 6.77544 2.59426 4.51034C2.272 5.063 2.08753 5.70605 2.08753 6.3928C2.08753 7.69148 2.74835 8.83754 3.75292 9.50874C3.13951 9.48911 2.56203 9.32057 2.05715 9.04016C2.05678 9.05572 2.05678 9.07165 2.05678 9.08757C2.05678 10.9011 3.34731 12.4139 5.06012 12.7584C4.74601 12.8436 4.41522 12.8895 4.0737 12.8895C3.83219 12.8895 3.59772 12.8662 3.36917 12.8221C3.84589 14.3093 5.22829 15.3921 6.86627 15.4221C5.585 16.4263 3.97109 17.0248 2.2168 17.0248C1.91491 17.0248 1.61673 17.0071 1.32373 16.9723C2.98097 18.035 4.94862 18.6543 7.06259 18.6543C13.949 18.6543 17.7143 12.9499 17.7143 8.00263C17.7143 7.84038 17.7109 7.67851 17.7039 7.51775C18.4351 6.99102 19.07 6.33131 19.5715 5.58047Z" fill="#0586CE"/>
</svg>
