<svg width="18" height="18" viewBox="0 0 18 18" fill="none" xmlns="http://www.w3.org/2000/svg">
<path d="M4.5 1.5L6.315 1.5C7.5 1.5 8.25 2.25 8.25 3.435L8.25 6L3.0075 6C2.175 6 1.5 5.3175 1.5 4.485C1.5075 3.6675 1.8375 2.9175 2.3775 2.3775C2.925 1.8375 3.675 1.5 4.5 1.5Z" stroke="#212121" stroke-width="1.5" stroke-miterlimit="10" stroke-linecap="round" stroke-linejoin="round"/>
<path d="M5.25 16.5L15.75 16.5C16.3725 16.5 16.725 15.795 16.35 15.3L15.39 14.0175C15.165 13.7175 15.195 13.2975 15.465 13.0275L16.7175 11.7825C17.01 11.49 17.01 11.01 16.7175 10.7175L15.4575 9.4575C15.195 9.195 15.165 8.775 15.39 8.4825L16.35 7.2C16.7175 6.705 16.365 6 15.75 6L3 6C2.175 6 1.5 5.325 1.5 4.5L1.5 12.75L1.5 13.5C1.5 15.75 2.8425 16.5 4.5 16.5L5.25 16.5Z" stroke="#212121" stroke-width="1.5" stroke-miterlimit="10" stroke-linecap="round" stroke-linejoin="round"/>
<path d="M9.75 13.5L9.75 9" stroke="#212121" stroke-width="1.5" stroke-linecap="round" stroke-linejoin="round"/>
<path d="M6.75 13.5L6.75 9" stroke="#212121" stroke-width="1.5" stroke-linecap="round" stroke-linejoin="round"/>
</svg>
